<svg version="1.1" id="Layer_1" xmlns="http://www.w3.org/2000/svg" xmlns:xlink="http://www.w3.org/1999/xlink" x="0px" y="0px"
	 width="100%" viewBox="0 0 1024 1024" enable-background="new 0 0 1024 1024" xml:space="preserve">
<path fill="FF0000" opacity="1.000000" stroke="none" 
	d="
M671.561768,636.257324 
	C666.518127,646.069580 658.677979,651.083008 648.114136,651.127686 
	C621.120483,651.242004 594.125366,651.127930 567.131348,650.999878 
	C557.589478,650.954651 552.377808,646.563477 551.102905,637.951843 
	C549.979919,630.366089 553.909912,625.821655 561.597290,625.812561 
	C586.425537,625.783386 611.253784,625.764404 636.082031,625.717224 
	C645.568054,625.699219 648.675476,622.613525 648.678284,613.184509 
	C648.691223,569.193420 648.596924,525.202026 648.777222,481.211700 
	C648.803162,474.892365 646.490234,470.371796 641.676147,466.677216 
	C611.153259,443.252472 580.658447,419.791168 550.146973,396.351624 
	C539.578369,388.232605 529.001465,380.124237 518.403564,372.043488 
	C511.965912,367.134857 509.955536,367.010956 503.406067,372.063934 
	C487.845428,384.069000 472.452179,396.290833 456.907990,408.317413 
	C431.087463,428.294891 405.226379,448.220154 379.315948,468.080750 
	C375.548218,470.968781 373.876129,474.430878 373.887634,479.179382 
	C373.995392,523.669556 373.993378,568.159973 374.014893,612.650330 
	C374.020081,623.406250 376.437653,625.778625 387.252533,625.780823 
	C411.414215,625.785767 435.575867,625.835083 459.737549,625.861694 
	C467.357941,625.870117 470.060242,627.648865 471.158051,633.408813 
	C472.526581,640.589050 469.688324,646.881653 463.980011,649.392944 
	C460.854462,650.767883 457.570984,651.028809 454.207550,651.026306 
	C428.879395,651.007385 403.551239,651.044983 378.223114,651.022583 
	C359.168518,651.005737 347.947693,639.504272 348.046417,620.306580 
	C348.257080,579.333069 348.334930,538.358643 348.657990,497.386078 
	C348.730225,488.225342 347.880859,479.101929 348.311890,469.919006 
	C348.732819,460.951324 352.883118,454.663635 359.844177,449.461517 
	C379.058929,435.102051 398.170624,420.602997 417.222961,406.028229 
	C443.419006,385.988647 469.523773,365.829773 495.666229,345.720062 
	C506.410187,337.455414 515.034485,337.194092 525.636658,345.248749 
	C571.666016,380.218201 617.636353,415.265289 663.632751,450.278107 
	C670.755371,455.699890 674.290649,462.915253 674.293945,471.814972 
	C674.312500,522.138062 674.275513,572.461121 674.320740,622.784180 
	C674.324829,627.373169 673.467285,631.706543 671.561768,636.257324 
z"/>
<path fill="#000000" opacity="1.000000" stroke="none" 
	d="
M486.002838,487.017822 
	C482.032776,488.084167 478.147705,488.532990 474.531464,485.851837 
	C473.534332,485.112549 472.307953,485.367676 471.143524,485.611633 
	C470.006866,485.849731 468.621765,486.525726 467.746429,486.127899 
	C461.310242,483.202728 453.555817,483.676697 448.007202,478.543610 
	C445.993744,476.680878 443.201660,477.496735 441.001495,476.275391 
	C439.367554,475.368378 437.515808,474.628632 437.708160,472.390900 
	C437.881042,470.379578 439.676270,469.797424 441.292145,469.412628 
	C454.661499,466.228699 466.111237,459.046478 477.646240,452.041687 
	C487.773743,445.891693 494.938904,448.455505 498.903442,459.766632 
	C499.907043,462.629944 500.880432,465.353271 503.679169,467.095703 
	C505.646088,468.320312 506.361206,470.394043 506.317963,472.722412 
	C506.275024,475.034729 506.308563,477.348450 506.504761,479.668549 
	C508.058197,473.289032 505.146942,466.283600 508.975891,460.041718 
	C502.537506,455.801361 501.807404,448.103973 507.977936,444.894501 
	C511.452393,443.087402 514.865967,443.303101 517.531250,446.345062 
	C520.332947,449.542755 521.080017,453.459564 518.418945,456.885315 
	C516.378418,459.512177 516.152893,462.057556 516.124939,465.112579 
	C516.012268,477.433502 515.632080,489.751862 515.379150,502.071747 
	C515.347839,503.597687 515.309448,505.074799 513.897095,506.428009 
	C520.221008,507.410828 526.284485,508.729706 532.392944,506.296997 
	C534.401245,505.497192 536.536133,505.000122 538.220032,503.534851 
	C539.598328,502.335480 540.242615,500.857544 539.581787,499.077728 
	C538.945740,497.364716 537.412659,497.097992 535.862061,497.235992 
	C532.720215,497.515656 529.590332,498.178253 526.453369,498.192291 
	C523.417786,498.205902 519.949463,497.592377 519.204041,494.140747 
	C518.521912,490.982025 521.815857,489.952454 523.971497,488.500000 
	C526.679749,486.675262 529.935303,486.604584 532.926636,485.056915 
	C529.010803,485.056915 525.094360,485.096924 521.179260,485.044006 
	C518.176514,485.003418 516.584900,483.616425 516.732178,480.392334 
	C516.868896,477.399689 516.772827,474.394806 516.726135,471.396118 
	C516.698303,469.607697 517.116394,467.934998 518.769775,467.133209 
	C522.959778,465.101379 524.168823,461.133514 525.752136,457.266266 
	C529.307800,448.581757 535.823730,446.184265 544.280884,450.392273 
	C550.691040,453.581757 556.544861,457.750214 562.990906,460.930176 
	C569.739380,464.259460 576.571045,467.218506 583.822998,469.236115 
	C585.533020,469.711914 587.695374,470.245697 587.668091,472.547455 
	C587.641968,474.759613 585.593384,475.397064 583.863831,475.985870 
	C580.623657,477.088928 577.445312,479.622345 574.784180,480.203827 
	C567.856873,481.717529 561.903381,487.360413 554.166748,485.394470 
	C552.725464,485.028229 551.169861,484.979675 549.823975,485.924896 
	C546.760376,488.076538 543.417664,488.488739 539.615173,487.432251 
	C545.163025,490.915924 549.922791,494.749573 549.069153,501.924286 
	C548.238342,508.907227 543.098022,511.883423 536.723267,513.739197 
	C538.675964,518.512573 541.029114,523.026733 538.906189,528.187012 
	C536.932617,532.984131 532.782837,535.415466 527.840881,537.918396 
	C535.790588,547.854065 535.418335,556.562134 524.805115,563.183655 
	C524.484070,565.168457 525.574341,566.122681 526.208801,567.248474 
	C529.600159,573.266113 529.185059,578.331482 524.228577,583.083679 
	C521.943054,585.275024 521.379089,586.816589 522.876831,589.817444 
	C525.802246,595.678589 524.666626,598.189941 517.693909,603.988037 
	C519.770508,612.846252 519.448914,614.153564 514.504822,616.317627 
	C512.795044,613.742859 516.867737,608.226746 510.346069,607.990845 
	C507.873016,610.302979 510.130493,613.757812 508.513947,616.638123 
	C504.819122,614.975342 503.519409,611.937073 504.630859,608.614685 
	C505.566864,605.816711 504.788574,604.441223 502.939758,602.650391 
	C498.998505,598.832886 498.231140,594.249268 501.117554,589.514771 
	C502.407196,587.399353 501.659851,586.375305 500.293854,584.836792 
	C493.923126,577.661438 493.454498,574.738403 497.779022,566.605164 
	C499.175079,563.979553 497.537354,563.036133 496.189880,561.621155 
	C489.253235,554.337097 489.114990,547.056213 495.960907,539.225525 
	C492.313171,536.019348 487.691681,533.783203 485.698822,528.849304 
	C483.681091,523.853943 485.527649,519.434570 487.395447,514.749268 
	C485.770050,513.833374 484.374542,512.953674 482.900940,512.233765 
	C478.151733,509.913788 475.142639,506.231567 475.268280,500.888702 
	C475.399170,495.324280 478.079315,491.054565 483.394745,488.735474 
	C484.146942,488.407257 484.823608,487.905823 486.207214,487.183807 
	C492.376770,485.994080 497.446289,487.020813 502.020569,490.265350 
	C503.601410,491.386627 506.110382,492.159119 505.532990,494.543762 
	C504.938507,496.998901 502.642578,498.063263 500.142120,498.264130 
	C496.124329,498.586884 492.182556,498.342468 488.388062,496.754547 
	C486.617065,496.013428 485.155365,496.588837 484.134674,498.259186 
	C483.167603,499.841766 483.910156,501.105591 484.813385,502.364929 
	C485.842377,503.799652 487.407990,504.332062 488.950745,504.988586 
	C495.177979,507.638397 501.638794,506.658508 507.533936,506.628174 
	C507.533936,498.981934 507.533936,491.630463 507.533936,483.696472 
	C504.813080,485.418793 502.585938,484.991211 500.542755,485.427277 
	C495.731781,486.453979 490.520050,483.642151 486.002838,487.017822 
M507.849426,519.871277 
	C507.263062,513.887756 502.620270,516.263306 499.802002,516.517944 
	C494.854004,516.964905 491.964752,523.415894 494.559662,527.082642 
	C496.942719,530.450012 503.841583,532.760742 507.878265,531.765686 
	C507.878265,528.026489 507.878265,524.391846 507.849426,519.871277 
M515.257507,530.164673 
	C514.999146,531.690674 514.093567,534.169617 517.005920,533.135193 
	C520.703491,531.821838 524.299744,529.942383 527.552917,527.736633 
	C530.928833,525.447693 530.606140,521.420227 527.273132,518.970703 
	C525.356689,517.562195 523.079651,516.926392 520.804016,516.494019 
	C517.343262,515.836426 514.888306,516.510437 515.287476,520.958862 
	C515.538940,523.760742 515.309692,526.605774 515.257507,530.164673 
M509.475372,543.207642 
	C510.010498,542.906677 510.545624,542.605713 511.172302,542.253174 
	C506.188904,540.883545 500.671143,544.206726 499.637756,549.074585 
	C498.733124,553.335815 501.960938,556.316833 508.940552,557.620178 
	C508.745667,552.991455 508.289154,548.370667 509.475372,543.207642 
M515.019897,554.768433 
	C514.716003,556.234985 514.412109,557.701538 514.087524,559.267944 
	C517.090149,559.768494 518.147217,557.117065 519.945984,555.988159 
	C522.485962,554.394043 525.711121,552.456482 524.019226,548.574829 
	C522.291992,544.612061 519.043091,542.841248 515.008179,543.251282 
	C515.008179,547.088501 515.008179,550.529663 515.019897,554.768433 
M508.815643,570.218079 
	C508.620148,569.149963 508.888916,567.780029 507.064362,567.665527 
	C505.211823,569.231934 503.528198,571.028076 502.667847,573.394836 
	C501.890045,575.534363 502.844086,577.258423 504.432922,578.660400 
	C505.322113,579.445007 506.415436,580.117676 507.569946,579.450684 
	C509.316956,578.441284 508.834564,576.571838 508.918945,574.982239 
	C508.988739,573.667908 508.890564,572.344543 508.815643,570.218079 
M514.463623,578.163452 
	C515.048523,580.168091 516.265198,580.410828 517.759888,579.180603 
	C519.441650,577.796387 521.054626,576.159302 520.444824,573.754700 
	C519.785156,571.153503 518.023315,569.639771 515.018066,569.557678 
	C513.775635,572.248657 514.397034,574.878357 514.463623,578.163452 
M513.863953,593.562744 
	C514.331726,595.182068 513.499329,597.087585 514.843140,598.561890 
	C516.531250,597.968933 517.103821,596.608337 517.460510,595.206543 
	C517.826782,593.767273 517.048035,592.695923 515.857666,591.965088 
	C514.748108,591.283936 514.050842,591.638062 513.863953,593.562744 
z"/>
<path fill="#000000" opacity="1.000000" stroke="none" 
	d="
M312.370880,366.632050 
	C315.995056,369.850739 319.296753,372.904968 322.730591,375.802582 
	C325.109985,377.810364 325.217834,379.476044 323.236420,382.059113 
	C317.596161,389.412018 317.763306,389.470123 311.237732,383.205414 
	C300.549347,372.944214 289.882263,362.658173 279.030853,352.571259 
	C276.234314,349.971710 275.934448,348.051178 278.422516,345.083405 
	C284.306732,338.064697 284.187134,338.004944 293.014679,341.251282 
	C301.248138,344.279144 309.509308,347.231506 319.032318,350.678223 
	C317.528015,346.772705 316.546661,344.030426 315.423401,341.347595 
	C312.788513,335.054230 310.036804,328.809509 307.425201,322.506683 
	C305.146881,317.008209 308.110382,310.350403 313.584564,308.177734 
	C315.419373,307.449432 316.382629,308.595917 317.496735,309.557770 
	C329.467346,319.892120 341.411682,330.256989 353.418640,340.548889 
	C355.692047,342.497528 355.796143,343.941925 353.617859,346.216705 
	C347.001801,353.125854 347.128204,353.186890 340.137970,346.779083 
	C335.371155,342.409424 331.025391,337.543762 324.942047,333.675934 
	C326.913361,340.747559 330.246521,346.630768 333.133575,352.664856 
	C334.880219,356.315369 334.645691,358.976837 331.848694,362.082123 
	C329.075470,365.160980 326.532043,365.837830 322.679871,364.370697 
	C317.107330,362.248322 311.320740,360.687958 304.913361,359.548889 
	C307.310486,361.832825 309.707611,364.116791 312.370880,366.632050 
z"/>
<path fill="#000000" opacity="1.000000" stroke="none" 
	d="
M610.595337,531.502747 
	C608.732849,542.241760 606.970642,552.562256 605.235046,562.887329 
	C604.884338,564.973816 603.828918,566.210083 601.615173,566.245911 
	C601.282227,566.251282 600.949097,566.264771 600.616699,566.284485 
	C588.623596,566.995117 588.623962,566.995361 590.779114,555.267334 
	C591.109192,553.471008 591.533813,551.684998 591.738647,549.874329 
	C592.080444,546.854248 594.039612,543.738831 591.631714,540.830505 
	C590.768433,539.787842 577.688171,540.041992 576.376343,540.916504 
	C574.822266,541.952576 574.613831,543.604065 574.346924,545.277710 
	C573.456421,550.862549 572.377014,556.419800 571.607971,562.020325 
	C571.181335,565.126465 569.652527,566.132812 566.626038,566.232178 
	C555.480164,566.598206 555.081726,566.619629 556.725647,556.030334 
	C559.400879,538.797119 562.693481,521.660278 565.631958,504.466797 
	C566.007080,502.271729 567.060486,501.220673 569.154358,501.009247 
	C569.650818,500.959137 570.151794,500.954590 570.650696,500.928589 
	C581.697021,500.352173 581.937256,500.584778 580.402344,511.397034 
	C579.888916,515.013977 579.269958,518.619629 578.570923,522.205444 
	C577.943665,525.422607 579.032898,527.028137 582.417969,526.804077 
	C582.583618,526.793152 582.751099,526.805237 582.917542,526.811890 
	C595.547974,527.319214 595.544617,527.318665 597.798523,514.933350 
	C598.036499,513.625671 598.430054,512.342163 598.605164,511.027954 
	C599.986816,500.662109 601.513855,499.602631 611.608887,501.328308 
	C614.600342,501.839691 615.575562,503.099182 615.046936,506.020599 
	C613.537048,514.364380 612.143982,522.729309 610.595337,531.502747 
z"/>
<path fill="#000000" opacity="1.000000" stroke="none" 
	d="
M499.441650,766.379517 
	C499.397675,775.353699 499.211700,784.008972 499.437683,792.653503 
	C499.545288,796.769104 498.170258,798.227661 494.004150,798.136780 
	C485.616241,797.953735 485.622955,798.142395 485.647156,789.968994 
	C485.690582,775.308472 485.866241,760.645996 485.669159,745.988586 
	C485.606445,741.322876 486.950623,739.725220 491.843842,739.518311 
	C497.451874,739.281311 500.636475,741.401794 503.613495,745.878113 
	C509.570435,754.834961 516.104492,763.408081 523.593140,771.854919 
	C523.593140,763.123230 523.539734,754.390930 523.633362,745.660156 
	C523.654968,743.650513 522.691772,740.732117 525.514771,740.092102 
	C529.030884,739.294983 532.809998,738.957336 536.280762,740.437988 
	C537.594482,740.998413 537.286316,742.792969 537.289856,744.096252 
	C537.334656,760.589233 537.317627,777.082520 537.405945,793.575195 
	C537.420349,796.268982 536.457703,797.031555 533.718201,797.553223 
	C526.421204,798.942444 522.079407,796.122986 518.327148,789.932617 
	C513.593140,782.122559 507.839447,774.925781 502.415649,767.545288 
	C501.822540,766.738281 501.529907,764.345093 499.441650,766.379517 
z"/>
<path fill="#000000" opacity="1.000000" stroke="none" 
	d="
M349.486115,750.713562 
	C352.693726,745.805420 355.687866,741.201111 358.757263,736.647522 
	C359.992310,734.815430 360.793427,733.153870 358.443451,731.573608 
	C353.365601,728.158813 348.306396,724.716187 342.935364,721.078979 
	C339.107635,726.422241 335.524078,731.172668 332.231171,736.116699 
	C330.280365,739.045715 328.577576,739.106018 325.762848,737.133850 
	C317.592529,731.409119 317.480560,731.499573 322.938965,723.452820 
	C331.440826,710.919434 340.087921,698.483032 348.456726,685.861755 
	C350.572662,682.670654 352.327911,682.634094 355.292023,684.596680 
	C363.564758,690.074280 363.669434,690.002319 358.440765,698.289185 
	C356.757538,700.956848 354.889923,703.521606 352.944031,706.006042 
	C351.135498,708.315186 351.112183,710.039062 353.809784,711.685059 
	C357.785797,714.111267 361.698303,716.652100 365.531128,719.298645 
	C367.876129,720.917908 369.468750,720.321838 370.924591,718.160156 
	C373.620575,714.157043 376.441284,710.235962 379.060822,706.184265 
	C380.572601,703.845947 382.148590,703.566101 384.417114,705.113281 
	C395.625397,712.757629 394.251648,710.010193 387.826630,720.007507 
	C379.910889,732.324402 371.690979,744.446533 363.836426,756.801514 
	C361.524323,760.438354 359.210052,761.493652 356.014771,758.381287 
	C353.645996,756.074036 348.489136,756.245850 349.486115,750.713562 
z"/>
<path fill="#000000" opacity="1.000000" stroke="none" 
	d="
M618.270752,311.866333 
	C615.071228,310.203125 614.831299,308.376648 616.653564,305.668488 
	C626.131348,291.582916 635.483582,277.412811 644.872986,263.267761 
	C645.523560,262.287628 646.116577,261.257416 647.489014,261.229858 
	C650.701538,261.165344 658.043030,268.355316 658.066589,271.687988 
	C658.139404,282.011292 658.146912,292.335052 658.207336,302.658478 
	C658.216675,304.257416 658.370239,305.855469 658.530579,308.806976 
	C664.594299,300.393311 669.950562,293.068176 675.175903,285.650757 
	C676.919312,283.175873 678.094666,280.986206 681.701538,283.676483 
	C688.700378,288.896698 689.132141,289.156006 686.220032,293.311737 
	C676.859070,306.669952 667.369690,319.938232 658.031616,333.312256 
	C656.255432,335.856201 654.764526,335.687653 652.263000,334.231934 
	C647.037537,331.191162 644.539490,327.415833 644.913147,320.935944 
	C645.532959,310.188141 645.081787,299.378632 645.081787,287.534882 
	C639.648315,295.430786 634.720215,302.630249 629.751526,309.801544 
	C625.273560,316.264557 625.253967,316.250977 618.270752,311.866333 
z"/>
<path fill="#000000" opacity="1.000000" stroke="none" 
	d="
M696.019043,740.103394 
	C691.056152,736.293640 688.857910,730.749512 685.575989,726.006042 
	C683.568176,723.104126 681.978821,722.092896 678.869934,724.452393 
	C675.298157,727.163208 671.507324,729.602234 667.698669,731.978027 
	C665.269958,733.493042 665.138184,735.009521 666.732666,737.255920 
	C669.813904,741.596680 672.648560,746.112244 675.718201,750.461609 
	C677.559814,753.071167 677.136963,754.686401 674.460022,756.544189 
	C665.574829,762.710388 665.709961,762.767639 659.811401,753.668640 
	C651.573242,740.960754 643.308838,728.267822 634.863159,715.697937 
	C632.818237,712.654419 632.970276,711.055603 636.190186,709.005127 
	C645.775391,702.901306 644.246216,703.384094 650.084656,711.942444 
	C656.831421,721.832153 656.771973,721.872681 666.752869,715.871948 
	C675.069153,710.872009 675.066833,710.873596 669.460205,702.748657 
	C668.893494,701.927368 668.362732,701.080444 667.835449,700.232971 
	C662.327087,691.379700 662.544067,690.782898 671.760010,685.208618 
	C674.018372,683.842590 675.349121,684.252014 676.699829,686.285706 
	C686.276611,700.705200 695.876404,715.109375 705.497986,729.499023 
	C706.852783,731.525269 706.814514,733.117859 704.626282,734.529236 
	C701.841309,736.325500 699.133484,738.241394 696.019043,740.103394 
z"/>
<path fill="#000000" opacity="1.000000" stroke="none" 
	d="
M508.248108,238.964844 
	C500.067291,241.355835 495.491760,252.086563 500.392822,263.864655 
	C503.235992,270.697296 511.923340,273.689972 519.593506,270.735474 
	C521.829590,269.874146 524.049255,268.966644 523.767212,265.934113 
	C523.450867,262.532532 520.737976,263.266418 518.796143,263.403534 
	C512.240479,263.866425 513.949951,259.163391 513.688477,255.623444 
	C513.381897,251.472488 515.918640,251.112045 519.141907,251.272751 
	C524.129761,251.521408 529.127747,251.661087 534.121399,251.662415 
	C537.088928,251.663208 538.371826,252.886749 538.278503,255.857574 
	C538.152954,259.852936 537.786987,263.901978 538.256836,267.840576 
	C538.976013,273.868652 535.855042,276.975616 531.092529,279.581207 
	C518.219666,286.623932 503.731812,286.051331 494.027740,277.887390 
	C481.979736,267.751526 480.291809,246.653091 490.551147,234.431320 
	C500.484833,222.597488 520.192688,221.026291 532.608582,231.106781 
	C533.882080,232.140732 535.252625,233.157486 535.843872,235.406616 
	C533.335449,237.870895 530.648560,240.515701 527.955383,243.154037 
	C526.555847,244.525116 525.243042,244.190781 524.111816,242.830368 
	C519.900513,237.765961 514.460632,237.539841 508.248108,238.964844 
z"/>
<path fill="#000000" opacity="1.000000" stroke="none" 
	d="
M414.774719,241.524200 
	C420.901245,239.780289 426.624237,238.033447 432.413666,236.544876 
	C441.324951,234.253601 449.020355,236.552963 453.052551,242.500229 
	C457.773651,249.463547 457.314789,258.099731 451.829254,265.706177 
	C451.447815,266.235138 451.126953,266.807800 450.636505,267.583954 
	C455.951355,274.192596 463.284790,278.690369 468.933685,284.955750 
	C461.139160,290.694183 454.832733,290.624329 448.461212,284.983948 
	C444.356598,281.350281 440.279572,277.685303 436.156006,274.073395 
	C435.828461,273.786499 435.233246,273.805237 434.764740,273.682526 
	C432.532043,275.075653 433.612427,276.892975 434.043945,278.580963 
	C435.154541,282.925171 436.264313,287.270355 437.451752,291.593903 
	C438.142090,294.107483 437.555756,295.489258 434.846954,296.438904 
	C424.998444,299.891632 424.960327,300.017517 422.258301,290.081329 
	C418.422058,275.973969 414.778320,261.813995 410.895508,247.719711 
	C409.930206,244.215591 410.816528,242.274841 414.774719,241.524200 
M438.858032,260.368225 
	C442.369659,257.494629 443.214569,253.881943 440.410645,250.367966 
	C437.251953,246.409409 432.413879,247.760040 429.517456,249.913971 
	C424.260895,253.822998 430.162659,258.370209 429.498688,262.765991 
	C433.122406,263.141449 435.632751,261.812958 438.858032,260.368225 
z"/>
<path fill="#000000" opacity="1.000000" stroke="none" 
	d="
M415.269775,532.440552 
	C416.847534,523.184814 418.376038,514.354004 419.725311,505.495941 
	C420.185303,502.476288 421.689148,501.111328 424.678986,501.116943 
	C434.000580,501.134460 443.322388,501.141327 452.643860,501.096375 
	C456.275360,501.078857 457.692169,502.658630 457.280457,506.347870 
	C456.332947,514.838257 456.102753,515.133911 447.544495,515.140747 
	C444.381653,515.143311 441.216858,515.228333 438.056580,515.142212 
	C435.321564,515.067749 433.868225,516.038086 433.236511,518.934204 
	C431.595825,526.456299 431.824219,526.898560 439.469482,526.913025 
	C440.468262,526.914917 441.467072,526.914124 442.465851,526.912354 
	C452.164948,526.895142 452.052856,526.915833 450.476837,536.289734 
	C449.936798,539.501892 448.472321,540.476624 445.497986,540.375122 
	C441.673553,540.244629 437.839447,540.247559 434.013580,540.348389 
	C429.572815,540.465332 428.186951,542.899109 428.194427,549.299316 
	C428.199615,553.729736 431.347717,552.774170 433.810394,552.860107 
	C437.967651,553.005127 442.132751,552.987671 446.293610,552.946350 
	C449.120056,552.918274 450.454468,553.846497 450.429565,557.028992 
	C450.364716,565.324097 449.499634,566.363220 441.134125,566.355225 
	C432.311523,566.346802 423.486694,566.168762 414.667450,566.326172 
	C410.462708,566.401184 409.014923,565.127441 409.937531,560.752197 
	C411.888977,551.498169 413.436920,542.159058 415.269775,532.440552 
z"/>
<path fill="#000000" opacity="1.000000" stroke="none" 
	d="
M426.104614,776.740967 
	C432.683289,776.626343 435.753418,772.634277 437.442688,767.429688 
	C440.674835,757.471680 443.784943,747.467285 446.618927,737.390198 
	C447.708191,733.516907 449.197235,732.395874 453.292603,733.520020 
	C462.738434,736.112793 462.894470,735.916382 460.146667,745.163879 
	C457.306671,754.721558 454.625061,764.351135 451.210785,773.707214 
	C446.535583,786.518799 438.059845,791.091431 424.100189,789.217712 
	C411.253815,787.493408 403.517242,779.717163 402.205261,767.104492 
	C401.858032,763.766724 402.436646,760.450989 403.273224,757.248535 
	C405.960999,746.959656 408.895935,736.734863 411.534576,726.433899 
	C412.511566,722.619873 413.957642,720.965210 418.107697,722.781555 
	C426.931305,726.643372 427.660065,723.967590 424.423004,735.350891 
	C421.787537,744.618591 419.155029,753.898438 416.948730,763.273438 
	C415.224182,770.601318 418.393982,775.060791 426.104614,776.740967 
z"/>
<path fill="#000000" opacity="1.000000" stroke="none" 
	d="
M594.895935,726.693665 
	C601.024719,726.107178 606.602234,726.546570 612.016663,728.632263 
	C615.111877,729.824585 616.482910,731.461121 614.251953,734.606323 
	C613.484619,735.688171 612.777527,736.851379 612.270447,738.071838 
	C610.786255,741.645081 608.704346,742.363647 604.851501,741.069336 
	C595.220398,737.833679 585.535400,743.076416 583.202026,752.259521 
	C580.563354,762.644653 586.318298,772.395203 596.500183,774.180237 
	C603.071777,775.332275 608.073914,772.226318 611.975769,767.114685 
	C614.378967,763.966248 623.179993,764.812683 624.857178,768.357056 
	C625.432983,769.573975 624.836060,770.607910 624.354126,771.669189 
	C619.250183,782.906677 609.824463,788.015991 598.184143,788.855957 
	C588.490540,789.555420 580.351624,785.762329 574.499268,777.571655 
	C559.818298,757.024658 569.728088,731.711243 594.895935,726.693665 
z"/>
<path fill="#000000" opacity="1.000000" stroke="none" 
	d="
M587.544250,272.566895 
	C586.534180,272.239136 585.900452,272.035309 585.262756,271.844696 
	C578.902466,269.943268 575.302490,272.587921 575.058228,279.165833 
	C574.977783,281.334473 576.493408,281.542816 577.867615,281.997131 
	C583.236877,283.772186 588.573425,285.672668 594.014404,287.196808 
	C598.859009,288.553864 597.309814,291.578033 596.453552,294.645874 
	C595.562073,297.839905 594.548462,300.182709 590.299683,298.697540 
	C580.725586,295.350983 571.038879,292.325745 561.388367,289.199463 
	C558.528503,288.273041 557.393860,286.783081 558.501526,283.603119 
	C563.973511,267.893707 569.327393,252.142700 574.622559,236.372650 
	C575.518860,233.703247 576.882263,233.088089 579.487549,233.963257 
	C588.789307,237.087875 598.118591,240.133301 607.471619,243.100800 
	C610.376892,244.022552 611.959717,245.456482 610.269226,248.506683 
	C608.753479,251.241302 609.672607,256.720795 603.539490,254.501556 
	C598.851257,252.805115 594.002869,251.553757 589.301453,249.890396 
	C584.657471,248.247314 584.508057,251.951157 583.431580,254.560699 
	C582.281860,257.347778 582.735962,259.186401 586.123840,260.033569 
	C590.635315,261.161652 594.986328,262.922546 599.486267,264.107941 
	C605.373657,265.658844 602.152405,269.280548 601.623962,272.367950 
	C601.024902,275.868134 599.228760,276.735382 595.962402,275.393066 
	C593.352600,274.320587 590.605103,273.583099 587.544250,272.566895 
z"/>
<path fill="#000000" opacity="1.000000" stroke="none" 
	d="
M371.936218,287.850647 
	C375.360870,285.746826 378.659546,284.061493 381.549683,281.843750 
	C385.725769,278.639191 387.222107,281.565918 389.188507,284.486450 
	C391.179810,287.443939 391.826202,289.625336 387.897247,291.605835 
	C384.196228,293.471375 380.830444,295.990387 377.231445,298.073853 
	C374.828308,299.465027 374.550079,300.854889 376.029144,303.296021 
	C380.137512,310.076721 380.015289,310.123993 386.787048,305.785950 
	C390.150513,303.631226 393.721893,301.768646 396.920746,299.398132 
	C400.310364,296.886261 401.818085,299.035248 403.023041,301.546112 
	C404.212219,304.024048 408.134705,306.598846 403.578278,309.462158 
	C394.983307,314.863403 386.307587,320.136169 377.717987,325.545837 
	C375.524872,326.927063 374.132568,326.472443 372.789673,324.380402 
	C363.889801,310.515930 354.967102,296.665833 345.972961,282.862427 
	C344.313629,280.315826 344.835052,278.623047 347.274841,277.100433 
	C355.887817,271.725250 364.503998,266.353851 373.050507,260.874298 
	C375.903137,259.045380 377.457977,260.404327 378.470642,262.829956 
	C379.531586,265.371185 383.599152,267.864166 379.171936,270.820831 
	C374.883301,273.684937 370.460114,276.347107 366.110107,279.120026 
	C363.926300,280.512085 361.721527,281.820831 364.116150,284.932587 
	C366.083710,287.489410 367.297821,291.388306 371.936218,287.850647 
z"/>
<path fill="#000000" opacity="1.000000" stroke="none" 
	d="
M273.141907,405.173431 
	C274.219482,402.690826 275.071686,400.517487 276.069183,398.412964 
	C277.386719,395.633270 278.090057,392.300018 282.776031,394.634277 
	C286.772705,396.625092 288.650940,398.577271 286.234833,403.014008 
	C284.649078,405.925934 283.823364,409.259583 282.177460,412.129120 
	C279.714172,416.423798 280.682983,418.888672 285.435638,420.043732 
	C286.535919,420.311157 287.586426,420.783081 289.233551,421.362854 
	C291.816010,415.649872 294.521729,410.165527 296.773895,404.500885 
	C298.210632,400.887238 299.969238,399.759094 303.497894,401.858490 
	C306.431915,403.604095 310.891144,403.799683 308.063324,409.454559 
	C303.823242,417.933594 300.137024,426.697601 296.435760,435.433899 
	C295.026611,438.759857 293.470062,439.551239 290.010468,437.971649 
	C276.229401,431.679382 262.357391,425.582062 248.440964,419.593933 
	C245.163574,418.183685 244.110458,416.586395 245.646500,413.145172 
	C249.582077,404.328278 253.262955,395.398010 257.105133,386.538879 
	C258.157379,384.112640 259.042328,381.126129 262.766418,383.571930 
	C265.783112,385.553162 271.128632,385.783600 267.879944,391.911407 
	C265.083557,397.186066 262.929871,402.801453 260.537140,408.165070 
	C267.238708,414.269073 269.128876,413.821564 273.141907,405.173431 
z"/>
<path fill="#000000" opacity="1.000000" stroke="none" 
	d="
M711.355225,375.811401 
	C712.240356,383.534088 711.932617,383.821350 704.810730,382.360748 
	C689.931335,379.309143 679.596680,365.976074 680.833130,351.426544 
	C682.060242,336.986908 694.473694,325.064484 709.277405,324.107635 
	C723.438843,323.192261 736.554993,333.960205 739.179749,348.894531 
	C739.626343,351.435486 740.957520,354.000793 739.752563,356.992798 
	C736.461304,357.980164 733.040710,357.073975 729.655945,356.749329 
	C727.390259,356.531952 727.031555,354.675201 726.753540,352.724243 
	C725.287964,342.441895 720.194336,337.894012 710.702515,338.252686 
	C702.803711,338.551178 695.449036,346.025208 694.985046,354.225067 
	C694.579407,361.394012 698.445251,366.884430 706.113037,369.433319 
	C709.201477,370.459991 711.821960,371.436401 711.355225,375.811401 
z"/>
<path fill="#000000" opacity="1.000000" stroke="none" 
	d="
M741.297852,406.297180 
	C747.188660,396.289551 752.869324,386.572418 758.676208,376.639435 
	C762.817993,378.901611 764.495239,382.644165 766.838196,385.748871 
	C768.078674,387.392609 766.968201,388.892853 766.034607,390.305542 
	C763.096741,394.750946 760.159912,399.197052 757.240234,403.654358 
	C756.354614,405.006409 755.283081,406.296539 755.179138,408.309204 
	C760.291443,409.305939 765.264954,408.884308 770.195068,408.984650 
	C779.543701,409.174835 779.543396,409.116425 781.460388,418.450256 
	C781.724976,419.738220 782.319824,421.005981 781.289673,423.059265 
	C775.963257,423.609436 770.169189,423.656189 764.467773,422.954773 
	C752.512024,421.483978 740.886169,421.208588 730.499634,428.745911 
	C727.630981,430.827606 725.728210,429.986053 724.467712,426.679230 
	C720.598816,416.529602 718.166138,418.710999 729.521118,413.198425 
	C733.521545,411.256348 738.065125,410.246552 741.297852,406.297180 
z"/>
<path fill="#000000" opacity="1.000000" stroke="none" 
	d="
M751.663147,591.481018 
	C750.954529,589.624756 752.115601,589.610718 753.085144,589.576416 
	C757.237183,589.429749 761.412781,589.030334 765.537048,589.323730 
	C768.508972,589.535278 769.774170,588.421875 770.595093,585.839966 
	C771.979736,581.484985 772.649292,576.859985 775.204712,572.303955 
	C777.897522,576.063721 778.605530,580.000366 779.397949,583.745300 
	C780.381714,588.394653 782.773193,589.996704 787.398010,589.610107 
	C791.262207,589.287109 795.265076,588.131165 799.744263,590.229187 
	C796.808899,593.890198 792.888123,595.727905 789.410889,597.930664 
	C786.144348,600.000061 785.285034,602.018921 786.795166,605.679504 
	C788.456360,609.706482 789.427002,614.018372 790.977905,619.126282 
	C785.814697,616.999451 782.706604,613.953369 779.400635,611.308777 
	C776.554443,609.031982 774.303467,609.010620 771.447693,611.268250 
	C768.110718,613.906372 764.894531,616.839172 760.142883,618.699036 
	C760.271057,613.998291 762.167358,610.320618 763.643982,606.645203 
	C765.321960,602.468506 764.555847,599.869507 760.431763,597.762146 
	C757.358643,596.191711 754.711548,593.787720 751.663147,591.481018 
z"/>
<path fill="#000000" opacity="1.000000" stroke="none" 
	d="
M766.504028,656.644897 
	C755.775269,663.980530 755.813599,663.967102 760.114380,676.261169 
	C760.628418,677.730408 761.830505,679.205505 760.574402,681.946594 
	C756.955566,679.221619 753.354919,676.786743 750.086609,673.966553 
	C747.195007,671.471497 744.901001,671.400330 741.874817,673.889160 
	C738.631836,676.556458 735.681946,679.860596 730.966614,681.171936 
	C730.968567,677.077637 732.373535,673.633911 733.893005,670.509399 
	C736.430176,665.292297 734.879883,662.312317 730.101868,659.806885 
	C727.099915,658.232788 724.213562,656.244141 721.727295,653.214600 
	C726.173889,651.002869 730.392334,651.962769 734.410461,652.075012 
	C738.601074,652.192017 740.808411,650.809448 741.859741,646.637939 
	C742.817078,642.839844 743.388306,638.832581 745.799194,634.848083 
	C748.749390,638.442810 749.170044,642.639648 750.131531,646.461121 
	C751.158997,650.544617 753.074585,652.244019 757.387695,652.102905 
	C761.579163,651.965820 765.924805,651.231140 770.076843,652.807068 
	C769.937988,655.184937 768.062134,655.524048 766.504028,656.644897 
z"/>
<path fill="#000000" opacity="1.000000" stroke="none" 
	d="
M275.370911,678.341919 
	C273.587311,679.459534 272.509277,681.198730 270.070038,681.009705 
	C270.239777,676.753662 271.978790,673.012207 273.606262,669.308960 
	C275.291534,665.474121 274.789978,662.810364 270.907776,660.629211 
	C267.499756,658.714417 264.158295,656.534058 260.923828,653.077576 
	C265.429260,651.074280 269.596222,652.068542 273.537750,652.100220 
	C277.866180,652.135010 280.336975,650.994812 281.075500,646.324524 
	C281.656738,642.648987 283.185669,639.123352 284.520599,634.795471 
	C288.014130,638.668335 288.191711,642.931824 289.231110,646.723267 
	C290.289978,650.585632 292.142365,652.173584 296.229095,652.019653 
	C300.275146,651.867188 304.448151,651.461487 309.092407,652.799194 
	C306.155060,656.889587 302.225098,658.779602 298.710815,660.968201 
	C295.286438,663.100891 294.761047,665.369751 296.302795,668.841064 
	C298.026550,672.722412 299.482239,676.731873 300.331970,681.530334 
	C295.666718,680.228516 292.959076,677.170410 290.102325,674.653992 
	C286.399841,671.392639 283.394806,671.051147 279.968201,674.763000 
	C278.746735,676.086243 277.096161,677.013428 275.370911,678.341919 
z"/>
<path fill="#000000" opacity="1.000000" stroke="none" 
	d="
M801.250061,515.694458 
	C805.505493,515.893127 809.343262,515.262939 813.686096,516.246948 
	C811.732849,520.110840 808.136230,521.744568 805.030823,523.435181 
	C800.365906,525.974792 799.620850,528.987061 801.696106,533.587219 
	C803.100403,536.699829 803.866211,540.100464 805.191345,544.224304 
	C800.475586,542.952209 797.651611,540.418762 795.013000,537.927979 
	C791.467712,534.581482 788.514282,534.344910 784.874878,537.815796 
	C782.056885,540.503235 778.668152,542.592224 774.721985,545.556580 
	C774.725769,539.937805 776.743347,536.087891 778.297729,532.225220 
	C779.757324,528.597961 779.065063,526.418152 775.696838,524.465454 
	C772.139587,522.403137 768.589294,520.203979 765.474060,516.744873 
	C769.159302,514.816772 772.877930,515.460205 776.230408,515.856323 
	C782.284668,516.571655 785.063049,514.183105 786.215149,508.421936 
	C786.831848,505.337799 787.346863,501.954468 789.917297,499.004761 
	C792.647705,502.778015 793.167236,506.979095 794.158142,510.869019 
	C795.128662,514.678894 796.990845,516.262146 801.250061,515.694458 
z"/>
<path fill="#000000" opacity="1.000000" stroke="none" 
	d="
M253.218124,537.789185 
	C253.886566,540.035583 254.454056,541.909241 255.261398,544.574768 
	C250.167435,543.100586 246.993820,539.942017 243.751266,537.179688 
	C240.703903,534.583618 238.476318,534.788574 235.649170,537.345032 
	C232.625443,540.079224 229.515045,542.837708 225.122101,544.369690 
	C224.895493,539.727478 226.911194,536.016235 228.365219,532.288818 
	C229.835022,528.520935 229.361267,526.239258 225.679764,524.145508 
	C222.317825,522.233521 218.769974,520.296265 216.128006,516.618958 
	C220.244522,514.913574 224.248306,515.569519 228.036743,515.824951 
	C232.605209,516.133240 234.585510,514.269897 235.708847,510.091858 
	C236.676468,506.492981 236.953354,502.569733 239.528214,499.074677 
	C242.539276,502.939545 243.196716,507.420959 244.427750,511.609161 
	C245.319672,514.643616 246.825027,515.873047 250.075699,515.804077 
	C254.478500,515.710632 258.950989,515.166382 263.873260,516.328003 
	C261.949646,519.950134 258.508026,521.249023 255.721115,522.821838 
	C250.693466,525.659302 249.256897,528.986206 252.074860,534.095703 
	C252.623978,535.091309 252.779892,536.303894 253.218124,537.789185 
z"/>
<path fill="#000000" opacity="1.000000" stroke="none" 
	d="
M251.947037,579.224487 
	C252.827499,576.897095 252.940750,574.650574 255.195770,572.186890 
	C256.733795,576.981567 258.215790,581.112427 259.362457,585.334229 
	C260.248230,588.595581 261.953705,589.867004 265.427643,589.717163 
	C269.537933,589.539795 273.717163,589.197144 279.448334,590.393860 
	C275.161163,593.452759 271.954132,596.122375 268.391418,598.174500 
	C264.910492,600.179626 264.473633,602.397827 265.939514,605.957703 
	C267.543823,609.853638 269.128540,613.853943 269.761566,618.720215 
	C265.172546,616.993103 262.078644,614.167847 259.065399,611.506836 
	C255.715302,608.548401 253.179443,608.924316 250.053268,611.634766 
	C247.203430,614.105774 243.984589,616.151184 239.990448,619.069458 
	C239.820297,613.793701 241.830750,610.118042 243.275574,606.512756 
	C244.954941,602.322205 244.344070,599.882568 240.237701,597.686096 
	C236.815384,595.855530 233.362000,593.760925 230.327667,590.228088 
	C234.515121,589.098938 238.327927,589.499512 241.970062,589.770447 
	C247.280258,590.165344 250.186676,588.246887 250.892136,582.952576 
	C251.044098,581.812073 251.512817,580.713867 251.947037,579.224487 
z"/>
<path fill="#000000" opacity="1.000000" stroke="none" 
	d="
M511.030457,609.761475 
	C514.752991,613.113953 512.830566,616.654541 511.596375,620.208191 
	C509.317047,616.916870 508.916168,613.490479 511.030457,609.761475 
z"/>
</svg>